<?xml version="1.0" encoding="utf-8"?>
<!-- Generator: Adobe Illustrator 21.1.0, SVG Export Plug-In . SVG Version: 6.00 Build 0)  -->
<svg version="1.1" id="Слой_1" xmlns="http://www.w3.org/2000/svg" xmlns:xlink="http://www.w3.org/1999/xlink" x="0px" y="0px"
	 viewBox="0 0 1920 469" style="enable-background:new 0 0 1920 469;" xml:space="preserve">
<style type="text/css">
	.st0{fill:#FF3333;}
	.st1{fill:#FFFFFF;}
	.st2{fill:none;}
	.st3{font-family:'SuisseIntl-SemiBold';}
	.st4{font-size:75.0532px;}
	.st5{fill:#F63133;}
</style>
<g>
	<path class="st0" d="M380,220.3c0-72.1,47.3-125.6,120.2-125.6c76.1,0,120.2,58.1,117.5,143.7H442.2c0.9,36,24.8,61.7,59.4,61.7
		c20.3,0,36.9-6.8,49.5-27.9h63.9c-13.1,36-45.9,76.1-113,76.1C422.8,348.2,380,290.1,380,220.3z M442.6,195.6h112.1
		c-1.4-41-28.4-55.4-55.8-55.4C473.7,140.2,446.2,158.6,442.6,195.6z"/>
	<path class="st1" d="M877.6,182.9h-59.4c-4.5-23-24.3-40.1-49.1-40.1c-33.8,0-56.7,27.5-56.7,77.9c0,50.9,21.6,79.3,57.2,79.3
		c22.5,0,42.8-10.8,50.9-40.1h59.4c-14.4,66.2-62.1,88.3-113.5,88.3c-73.9,0-117.5-53.6-117.5-126.5c0-73.9,46.4-127,120.2-127
		C820.9,94.7,869.5,122.6,877.6,182.9z"/>
	<path class="st1" d="M1055.5,160c-9-0.9-16.7-1.4-25.7-1.4c-30.6,0-50.9,11.3-50.9,56.7v127h-62.1V100.1H978v42.3
		c14-29.7,36-41.9,63.9-41.9c4.1,0,9.5,0.5,13.5,0.9V160z"/>
	<path class="st1" d="M1090.2,421.2v-47.7h23.4c20.7,0,30.2,0.5,40.5-25.2l2.7-6.8L1064,100.1h68l54.9,174.7l56.3-174.7h63
		l-88.7,235.1c-28.4,75.2-41,86-101.3,86H1090.2z"/>
	<path class="st1" d="M1334.2,342.4V15.9h62.1v115.3c13.1-22.5,39.2-36.5,69.8-36.5c60.3,0,104,50.4,104,126.5
		c0,77.5-44.6,127-104,127c-25.2,0-54.5-9.9-69.8-36.5v30.6H1334.2z M1504.9,221.7c0-47.3-20.3-79.3-54-79.3
		c-34.2,0-56.7,30.2-56.7,78.8c0,49.5,22.5,79.3,56.7,79.3C1484.6,300.5,1504.9,269,1504.9,221.7z"/>
	<path class="st1" d="M1598.1,220.3c0-72.1,47.3-125.6,120.2-125.6c76.1,0,120.2,58.1,117.5,143.7h-175.6
		c0.9,36,24.8,61.7,59.4,61.7c20.3,0,36.9-6.8,49.5-27.9h63.9c-13.1,36-45.9,76.1-113,76.1C1640.9,348.2,1598.1,290.1,1598.1,220.3z
		 M1660.7,195.6h112.1c-1.4-41-28.4-55.4-55.8-55.4C1691.8,140.2,1664.3,158.6,1660.7,195.6z"/>
</g>
<polygon class="st1" points="1091.6,449.4 1091.6,345.2 1001.3,397.3 "/>
<rect x="356.3" y="356.1" class="st2" width="591.1" height="82.4"/>
<text transform="matrix(1 0 0 1 356.2949 420.832)" class="st1 st3 st4">connect yourself</text>
<g>
	<path class="st5" d="M173.1,38.2L124,38l52.8,48.1c54.1,1.3,105.2,17.8,104.9,107.1c-0.2,89.7-51.4,106-105.6,107L123.6,348
		l48.7,0.1c98.3,0.3,172.4-31.6,172.7-154.7C345.3,70.7,271.4,38.4,173.1,38.2z"/>
	<polygon class="st5" points="80.5,308.5 141.7,252.7 142.1,133.3 81.1,77.8 	"/>
</g>
</svg>
